<?xml version="1.0" encoding="UTF-8"?>
<svg width="180px" height="179px" viewBox="0 0 180 179" version="1.1" xmlns="http://www.w3.org/2000/svg" xmlns:xlink="http://www.w3.org/1999/xlink">
    <!-- Generator: Sketch 42 (36781) - http://www.bohemiancoding.com/sketch -->
    <title>filled</title>
    <desc>Created with Sketch.</desc>
    <defs>
        <polygon id="path-1" points="179.774366 178.740881 179.774366 0.224055944 0 0.224055944 0 178.740881 179.774366 178.740881"></polygon>
    </defs>
    <g id="Page-1" stroke="none" stroke-width="1" fill="none" fill-rule="evenodd">
        <g id="INSTAGRAM" transform="translate(0.000000, -1.000000)">
            <g id="filled" transform="translate(0.000000, 1.000000)">
                <path d="M119.117789,70.2771049 L119.288915,69.6263357 C118.823704,69.6917902 118.364831,69.8126294 117.909761,69.9586434 C117.455958,70.1172448 117.008493,70.2607413 116.557225,70.4180839 C114.979056,70.875007 113.587225,71.5068951 112.35638,72.2898322 C112.320887,72.4459161 112.267648,72.5957063 112.190324,72.7354266 C113.43638,72.9519301 114.648211,72.9859161 115.824549,72.8084336 C117.130183,72.602 118.226662,71.7611608 119.117789,70.2771049" id="Fill-1" fill="#333D45"></path>
                <path d="M39.9791408,70.2180699 L40.1667465,69.4817063 C39.6939296,69.5408671 39.2236479,69.6528951 38.7736479,69.808979 C38.3109718,69.960028 37.8520986,70.1186294 37.3919577,70.2684196 C35.5399859,70.8021259 33.9187183,71.5838042 32.5218169,72.6298182 C33.9187183,73.014993 35.2725211,73.127021 36.5946338,72.9520559 C37.9116761,72.7758322 39.0385775,71.8695385 39.9791408,70.2180699" id="Fill-3" fill="#333D45"></path>
                <path d="M119.072028,103.991483 C119.054282,103.98393 119.069493,103.991483 119.045408,103.985189 L118.969352,103.985189 L98.0741408,103.985189 C98.0627324,103.985189 98.0525915,103.978895 98.0399155,103.978895 C97.607662,103.978895 97.2578028,104.326308 97.2578028,104.755538 C97.2578028,104.776937 97.2679437,111.757916 97.2704789,111.779315 L97.2704789,111.805748 C97.2730141,111.808266 97.2755493,111.810783 97.2780845,111.814559 C97.3199155,112.140573 97.5582254,112.39358 97.877662,112.461552 C97.8966761,112.47414 107.929775,112.495538 107.929775,112.495538 L115.420056,112.495538 C115.445408,112.487986 119.132873,112.466587 119.15569,112.450224 C119.477662,112.354559 119.718507,112.068825 119.718507,111.717636 L119.718507,104.755538 C119.718507,104.380434 119.426958,104.06449 119.072028,103.991483" id="Fill-5" fill="#333D45"></path>
                <path d="M80.1908873,104.062098 C80.1858169,104.058322 80.1832817,104.055804 80.1782113,104.052028 L58.4438451,104.052028 L58.4438451,106.473846 L80.2441268,106.473846 C80.2555352,106.466294 80.2618732,106.457483 80.2720141,106.451189 C80.8906056,106.394545 81.381169,105.893566 81.381169,105.265455 C81.381169,104.605874 80.8500423,104.075944 80.1908873,104.062098" id="Fill-7" fill="#333D45"></path>
                <g id="Group-11" transform="translate(0.000000, 0.034685)">
                    <mask id="mask-2" fill="white">
                        <use xlink:href="#path-1"></use>
                    </mask>
                    <g id="Clip-10"></g>
                    <path d="M161.697676,104.016965 L148.708521,104.016965 L148.708521,116.222979 L145.395,116.222979 L145.362042,105.129692 L145.362042,104.016965 L132.504718,104.016965 L132.504718,100.416965 L161.697676,100.416965 L161.697676,104.016965 Z M123.052183,112.36242 C123.052183,114.936545 122.219366,116.222979 120.558803,116.222979 L114.490775,116.222979 L111.571479,116.222979 L108.487394,116.222979 L102.419366,116.222979 L96.4489437,116.222979 C94.7224648,116.222979 93.8579577,114.936545 93.8579577,112.36242 L93.8579577,103.688434 C93.8579577,101.464238 94.7326056,100.35151 96.483169,100.35151 L120.558803,100.35151 C122.219366,100.35151 123.052183,101.464238 123.052183,103.688434 L123.052183,112.36242 Z M84.3889437,106.24242 C84.3889437,108.642839 83.6347183,109.84242 82.1262676,109.84242 L76.1888028,109.84242 L70.5796479,109.84242 L64.4457042,109.84242 L58.4435915,109.84242 L58.4435915,116.222979 L55.1630282,116.222979 L55.1630282,100.35151 L82.1262676,100.35151 C83.6347183,100.35151 84.3889437,101.430252 84.3889437,103.59151 L84.3889437,106.24242 Z M45.710493,112.36242 C45.710493,114.936545 44.8573944,116.222979 43.1511972,116.222979 L16.5175352,116.222979 L16.5175352,112.329692 C16.5175352,112.329692 41.1521831,112.318364 41.1585211,112.314587 C41.7948592,112.252909 42.2980986,111.738084 42.2980986,111.091091 C42.2980986,110.670671 42.075,110.318224 41.7555634,110.092909 C41.6123239,109.955706 41.438662,109.858783 41.2079577,109.84242 L18.813169,109.84242 C17.2819014,109.798364 16.5175352,108.63151 16.5175352,106.340601 L16.5175352,103.656965 C16.5175352,101.452909 17.2933099,100.35151 18.8461268,100.35151 L45.6623239,100.35151 L45.6623239,103.943958 C45.6623239,103.943958 21.1075352,103.960322 21.0720423,103.972909 C20.4711972,104.045916 20.0009155,104.534308 20.0009155,105.151091 C20.0009155,105.670951 20.3342958,106.105217 20.8007746,106.275147 C20.889507,106.328014 20.9833099,106.362 21.0897887,106.362 L43.1410563,106.362 C44.8459859,106.362 45.710493,107.530112 45.710493,109.907874 L45.710493,112.36242 Z M177.871056,71.160042 C176.981197,71.3954266 176.035563,71.5452168 175.026549,71.5917902 C173.545986,71.661021 172.176972,71.8095524 170.918239,72.0474545 C168.779789,72.3206014 166.637535,72.5937483 164.499085,72.8580839 C162.359366,73.1337483 160.208239,73.3263357 158.049507,73.4371049 C156.524577,73.4736084 154.905845,73.4006014 153.189507,73.2168252 C151.476972,73.0368252 149.929225,72.589972 148.552606,71.8825594 C147.812324,73.0166853 147.030211,74.1331888 146.202465,75.2383636 C145.381056,76.3473147 144.546972,77.3832587 143.707817,78.3701119 C142.868662,79.362 141.991479,80.374028 141.075,81.4011608 C140.167394,82.4396224 139.050634,83.1999021 137.745,83.6882937 C136.141479,84.3717902 134.673592,84.1980839 133.331197,83.1633986 C132.697394,82.6057762 132.296831,82.0015804 132.13331,81.3357063 C132.072465,81.0978042 132.049648,80.8473147 132.026831,80.5980839 C124.34007,85.8294126 112.591901,86.4726294 111.442183,86.567035 C110.101056,86.6803217 108.766268,86.6161259 107.436549,86.3794825 C106.184155,86.1957063 105.067394,85.8331888 104.077394,85.2906713 C103.08993,84.7544476 102.254577,84.0936084 101.584014,83.3182238 C100.905845,82.5440979 100.45331,81.673049 100.207394,80.7013007 C99.9627465,79.7371049 99.9893662,78.6633986 100.282183,77.4877343 C100.435563,76.808014 100.686549,76.1585035 100.984437,75.5228392 C99.8169718,75.5643776 98.9702113,75.6033986 98.4593662,75.6449371 C97.4871127,75.7292727 96.1776761,75.8362657 94.5500704,75.9734685 C92.9211972,76.1106713 91.3417606,76.0766853 89.8142958,75.8765455 C89.096831,78.2240979 88.0738732,80.4936084 86.7517606,82.6875944 C85.4271127,84.8853566 84.0580986,86.9836783 82.6573944,88.9913706 C82.0058451,89.830951 81.2655634,90.7737483 80.4365493,91.8197622 C79.6062676,92.862 78.6834507,93.8224196 77.673169,94.6884336 C76.6628873,95.5544476 75.5879577,96.2354266 74.4496479,96.7213007 C73.3100704,97.2046573 72.135,97.3040979 70.9269718,97.0145874 C69.4552817,96.613049 68.5476761,95.7986434 68.2079577,94.549972 C67.8758451,93.3063357 67.8834507,92.0224196 68.2282394,90.6881538 C68.8962676,87.7640979 70.0257042,84.9520699 71.6000704,82.2445175 C72.2617606,81.1078741 72.9297887,80.0014406 73.5990845,78.9038182 C73.5052817,78.9453566 73.4076761,78.9755664 73.3126056,79.0183636 C70.785,80.1411608 68.3093662,81.3621399 65.8907746,82.6712308 C63.4747183,83.9790629 60.9242958,85.009972 58.2255634,85.7564056 C57.3293662,85.9590629 56.3964085,86.0207413 55.4406338,85.9414406 C54.4823239,85.8558462 53.6723239,85.4178042 53.0119014,84.6298322 C52.5707746,84.1049371 52.286831,83.5208811 52.1055634,82.8978042 C44.2464085,88.1228392 32.9609155,88.3531888 31.8340141,88.4136084 C30.4764085,88.4840979 29.1327465,88.3582238 27.800493,88.0334685 C26.5480986,87.7741678 25.431338,87.315986 24.4489437,86.6589231 C23.4652817,86.0068951 22.6464085,85.223958 21.9847183,84.3138881 C21.3319014,83.4038182 20.8933099,82.3905315 20.6676761,81.2840979 C20.4547183,80.1764056 20.5066901,78.9579441 20.8362676,77.6312308 C21.368662,75.2182238 22.6210563,73.0771049 24.6023239,71.2204615 C26.5747183,69.3562657 28.6320423,67.8596224 30.7742958,66.7254965 C31.7845775,66.2408811 32.9076761,65.7902517 34.148662,65.3799021 C35.3769718,64.9657762 36.6166901,64.7026993 37.8526056,64.5755664 C39.0897887,64.4496923 40.2965493,64.5038182 41.4792254,64.7392028 C42.650493,64.9733287 43.7228873,65.4566853 44.678662,66.1867552 C45.7992254,67.1043776 46.4710563,68.0723497 46.671338,69.0768252 C46.8741549,70.080042 46.7778169,71.0505315 46.3645775,71.9945874 C45.9500704,72.9373846 45.3124648,73.7895524 44.4479577,74.5447972 C43.5758451,75.2975245 42.5858451,75.8148671 41.4842958,76.1043776 C39.6969718,76.6934685 37.8690845,76.8268951 36.0006338,76.5008811 C34.1283803,76.1773846 32.3854225,75.5920699 30.7616197,74.7336084 C29.6917606,75.8652168 28.7511972,77.1277343 27.9348592,78.5161259 C27.1147183,79.9082937 26.9740141,81.2765455 27.5165493,82.6334685 C27.7307746,83.1734685 28.2365493,83.4768252 29.0389437,83.5523497 C29.8197887,83.6278741 44.7154225,84.4259161 55.7359859,72.2085734 C56.2835915,71.3941678 56.8590845,70.6011608 57.4675352,69.8358462 C58.7161268,68.2636783 59.6883803,67.0238182 60.4020423,66.1162657 C62.8307746,62.9807413 65.3457042,59.9471748 67.9506338,57.0281538 C70.2411972,54.4615804 72.6458451,51.9894126 75.1290845,49.5801818 C73.8437324,49.8722098 72.3720423,50.2158462 70.6709155,50.6236783 C70.1347183,50.7533287 69.4464085,50.5166853 69.0864085,50.230951 C68.7251408,49.9452168 68.6782394,49.6582238 68.5045775,49.2516503 C68.3321831,48.8463357 68.3042958,48.4082937 68.4310563,47.9425594 C68.5552817,47.4780839 68.8240141,47.0941678 69.2448592,46.7945874 C69.8571127,46.3766853 71.7800704,44.8813007 81.2503521,43.5105315 C81.6027465,43.4589231 81.9057042,43.4123497 82.1921831,43.3758462 C82.1972535,43.3745874 82.2023239,43.3708112 82.2061268,43.3695524 C82.8399296,43.1228392 83.4141549,43.1253566 83.925,43.3733287 C84.4396479,43.6238182 84.8326056,43.9813007 85.1026056,44.4482937 C85.3700704,44.9115105 85.4816197,45.443958 85.4347183,46.028014 C85.3827465,46.6233986 85.1178169,47.136965 84.6247183,47.5674545 C81.8055634,49.8923497 79.1233099,52.3468951 76.5906338,54.9336084 C74.0528873,57.5291329 71.6190845,60.2266154 69.296831,63.0235385 C68.049507,64.5654965 66.8338732,66.1162657 65.655,67.6821399 C64.4748592,69.2467552 63.3352817,70.8529091 62.2235915,72.5157063 C61.9966901,72.8580839 61.6519014,73.3313706 61.2120423,73.9192028 C60.7683803,74.5108112 60.3006338,75.1716503 59.8024648,75.8954266 C59.3055634,76.6204615 58.856831,77.3606014 58.4676761,78.1108112 C58.0696479,78.8635385 57.7730282,79.5671748 57.5626056,80.2393427 C58.6514789,79.8843776 59.7137324,79.4551469 60.7480986,78.9415804 C61.791338,78.4343077 62.8434507,77.9081538 63.9120423,77.3618601 C65.6778169,76.4933287 67.4600704,75.6285734 69.2600704,74.7638182 C71.055,73.8978042 72.8778169,73.1589231 74.7323239,72.5433986 C75.5664085,72.2828392 76.6185211,71.9656364 77.9038732,71.5980839 C78.0623239,71.5515105 78.2119014,71.5326294 78.3665493,71.4999021 C79.4871127,69.827035 80.6228873,68.1642378 81.7827465,66.5253566 C83.6296479,63.9298322 85.5310563,61.3418601 87.4742958,58.7664755 C89.2476761,56.4063357 91.0666901,54.0852168 92.9465493,51.8056364 C94.0975352,50.410951 95.2928873,49.0691329 96.5123239,47.7524895 C94.9835915,48.0936084 93.1455634,48.5178042 90.9133099,49.0527692 C90.3758451,49.1824196 89.6875352,48.9457762 89.3288028,48.6587832 C88.9675352,48.3743077 88.9206338,48.0873147 88.7469718,47.6807413 C88.5733099,47.2754266 88.5466901,46.8373846 88.6734507,46.3716503 C88.7964085,45.9071748 89.0664085,45.5232587 89.4872535,45.2236783 C90.099507,44.8057762 92.0224648,43.3091329 101.492746,41.9396224 C102.487817,41.7948671 103.119085,41.629972 103.986127,41.893049 C104.048239,41.9131888 104.095141,41.9358462 104.153451,41.9547273 C104.442465,42.0164056 104.698521,42.1221399 104.915282,42.2794825 C105.367817,42.5236783 105.650493,42.8081538 105.688521,43.1543077 C105.692324,43.1908112 105.693592,43.2197622 105.697394,43.255007 C105.740493,43.3519301 105.798803,43.4413007 105.830493,43.5445175 C105.963592,43.9913706 105.991479,44.4482937 105.895141,44.9052168 C105.805141,45.3734685 105.545282,45.7813007 105.116831,46.1463357 C101.687958,49.1043776 98.588662,52.3972448 95.8126056,56.0173846 C93.0302113,59.6362657 90.3593662,63.2853566 87.7772535,66.9596224 C86.2637324,69.2303916 84.770493,71.5401818 83.2924648,73.8826993 C81.819507,76.223958 80.3642958,78.5916503 78.9280986,80.9958462 C78.2372535,82.1601818 77.5869718,83.355986 76.9671127,84.5807413 C76.3459859,85.8054965 75.7299296,87.028993 75.1100704,88.2562657 L74.0934507,90.1997622 C75.3407746,89.4432587 76.1152817,88.8881538 76.4106338,88.5344476 C77.2700704,87.748993 78.0496479,86.9144476 78.7620423,86.0433986 C79.4782394,85.1660559 80.1538732,84.2761259 80.8028873,83.3824196 C81.8119014,82.1236783 82.8551408,80.7503916 83.9465493,79.2524895 C85.0354225,77.7608811 85.9721831,76.2365455 86.7593662,74.6706713 C86.2738732,74.3811608 85.9075352,73.922979 85.6578169,73.2936084 C85.3434507,72.6667552 85.2914789,72.049972 85.5019014,71.4495524 C85.7123239,70.8466154 86.0659859,70.3733287 86.5641549,70.0385035 C87.0585211,69.7061958 87.6188028,69.5148671 88.2373944,69.4657762 C88.8534507,69.4066154 89.4479577,69.6193427 90.0145775,70.0951469 C90.7573944,70.3557063 91.5572535,70.4715105 92.4040141,70.429972 C93.2583803,70.395986 94.0772535,70.3733287 94.8593662,70.3720699 C96.5655634,70.3594825 98.235,70.2726294 99.861338,70.0976643 C101.485141,69.9327692 103.141901,69.7175245 104.825282,69.4406014 C105.345,69.4003217 105.961056,69.2945874 106.672183,69.141021 C106.911761,69.0868951 107.155141,69.0554266 107.395986,69.0201818 C108.21993,68.4789231 109.057817,67.9754266 109.912183,67.5373846 C110.900915,67.0741678 112.007535,66.6411608 113.223169,66.2282937 C114.438803,65.8292727 115.664577,65.5435385 116.884014,65.3912308 C118.109789,65.2313706 119.312746,65.2376643 120.484014,65.3987832 C121.660352,65.5712308 122.732746,65.9576643 123.697394,66.5593427 C124.834437,67.3284336 125.517676,68.1516503 125.740775,69.0277343 C125.967676,69.9050769 125.886549,70.7635385 125.49993,71.6018601 C125.109507,72.448993 124.494718,73.2231189 123.650493,73.9179441 C122.808803,74.608993 121.839085,75.1049371 120.743873,75.3944476 C118.989507,75.981021 117.179366,76.1622797 115.309648,75.9407413 C113.448803,75.728014 111.70331,75.2723497 110.078239,74.5762657 C109.043873,75.6147273 108.135,76.7576643 107.352887,78.0063357 C106.575845,79.255007 106.459225,80.4684336 107.02838,81.634028 C107.254014,82.1073147 107.766127,82.3565455 108.555845,82.3892727 C109.284718,82.427035 122.197817,82.573049 132.587113,73.5717902 C132.527535,72.9826993 132.595986,72.3659161 132.82669,71.7164056 C133.23993,70.5394825 134.11838,69.8685734 135.46838,69.7024196 C137.061761,69.5828392 138.151901,69.9176643 138.741338,70.7245175 C139.325704,71.5351469 139.612183,72.5383636 139.609648,73.7329091 C141.443873,71.7415804 142.895282,69.5589231 143.96007,67.1887133 C144.214859,66.6751469 144.450634,66.1275944 144.655986,65.535986 C144.863873,64.9544476 145.111056,64.3980839 145.412746,63.887035 C145.710634,63.3696923 146.074437,62.9454965 146.513028,62.6056364 C146.955423,62.2682937 147.537254,62.0945874 148.257254,62.082 C149.469085,62.0882937 150.282887,62.5074545 150.713873,63.3294126 C151.142324,64.1589231 151.414859,65.0413007 151.537817,65.9853566 C152.038521,66.7217203 153.132465,67.1257762 154.831056,67.1874545 C156.532183,67.2579441 158.396831,67.1811608 160.421197,66.9621399 C162.446831,66.7481538 164.360915,66.4599021 166.169789,66.1112308 C167.977394,65.7675944 169.237394,65.5435385 169.951056,65.4554266 C170.663451,65.3647972 171.46838,65.2049371 172.367113,64.967035 C173.258239,64.7354266 174.179789,64.5189231 175.120352,64.3250769 C175.446127,64.2558462 175.765563,64.2143077 176.085,64.168993 C165.093592,27.2085734 130.674296,0.223678322 89.8865493,0.223678322 C40.2483803,0.223678322 -0.000633802817,40.189972 -0.000633802817,89.481021 C-0.000633802817,138.779622 40.2483803,178.740881 89.8865493,178.740881 C139.533592,178.740881 179.775,138.779622 179.775,89.481021 C179.775,83.2011608 179.11331,77.0748671 177.871056,71.160042 L177.871056,71.160042 Z" id="Fill-9" fill="#333E46" mask="url(#mask-2)"></path>
                </g>
            </g>
        </g>
    </g>
</svg>